<svg xmlns="http://www.w3.org/2000/svg" xmlns:xlink="http://www.w3.org/1999/xlink" width="500" zoomAndPan="magnify" viewBox="0 0 375 374.999991" height="500" preserveAspectRatio="xMidYMid meet" version="1.2"><metadata><ContainsAiGeneratedContent>Yes</ContainsAiGeneratedContent></metadata><defs><clipPath id="dcdbfd881e"><path d="M 27.003906 48 L 94 48 L 94 163 L 27.003906 163 Z M 27.003906 48 "/></clipPath><clipPath id="4570169dcb"><path d="M 204 220 L 310 220 L 310 339 L 204 339 Z M 204 220 "/></clipPath><clipPath id="bc86ea68d2"><path d="M 161.15625 194.410156 L 287.816406 169.949219 L 318.816406 330.484375 L 192.15625 354.945312 Z M 161.15625 194.410156 "/></clipPath><clipPath id="6a2b859c8b"><path d="M 161.15625 194.410156 L 287.816406 169.949219 L 318.816406 330.484375 L 192.15625 354.945312 Z M 161.15625 194.410156 "/></clipPath><clipPath id="d8f23df486"><path d="M 192 188 L 207 188 L 207 210 L 192 210 Z M 192 188 "/></clipPath><clipPath id="1c75b1afec"><path d="M 161.15625 194.410156 L 287.816406 169.949219 L 318.816406 330.484375 L 192.15625 354.945312 Z M 161.15625 194.410156 "/></clipPath><clipPath id="c02d650769"><path d="M 161.15625 194.410156 L 287.816406 169.949219 L 318.816406 330.484375 L 192.15625 354.945312 Z M 161.15625 194.410156 "/></clipPath><clipPath id="1ce64f42c1"><path d="M 170 211 L 194 211 L 194 225 L 170 225 Z M 170 211 "/></clipPath><clipPath id="afd67a5bee"><path d="M 161.15625 194.410156 L 287.816406 169.949219 L 318.816406 330.484375 L 192.15625 354.945312 Z M 161.15625 194.410156 "/></clipPath><clipPath id="d1643b4cba"><path d="M 161.15625 194.410156 L 287.816406 169.949219 L 318.816406 330.484375 L 192.15625 354.945312 Z M 161.15625 194.410156 "/></clipPath><clipPath id="6a63e84aaa"><path d="M 171 236 L 194 236 L 194 251 L 171 251 Z M 171 236 "/></clipPath><clipPath id="e4921ab072"><path d="M 161.15625 194.410156 L 287.816406 169.949219 L 318.816406 330.484375 L 192.15625 354.945312 Z M 161.15625 194.410156 "/></clipPath><clipPath id="290165d142"><path d="M 161.15625 194.410156 L 287.816406 169.949219 L 318.816406 330.484375 L 192.15625 354.945312 Z M 161.15625 194.410156 "/></clipPath><clipPath id="5cc0806320"><path d="M 233 209 L 256 209 L 256 224 L 233 224 Z M 233 209 "/></clipPath><clipPath id="fe2b929581"><path d="M 161.15625 194.410156 L 287.816406 169.949219 L 318.816406 330.484375 L 192.15625 354.945312 Z M 161.15625 194.410156 "/></clipPath><clipPath id="7fa434d603"><path d="M 161.15625 194.410156 L 287.816406 169.949219 L 318.816406 330.484375 L 192.15625 354.945312 Z M 161.15625 194.410156 "/></clipPath><clipPath id="e2241b2f1b"><path d="M 219 187 L 233 187 L 233 210 L 219 210 Z M 219 187 "/></clipPath><clipPath id="098c6c1b4f"><path d="M 161.15625 194.410156 L 287.816406 169.949219 L 318.816406 330.484375 L 192.15625 354.945312 Z M 161.15625 194.410156 "/></clipPath><clipPath id="cb3e7f6919"><path d="M 161.15625 194.410156 L 287.816406 169.949219 L 318.816406 330.484375 L 192.15625 354.945312 Z M 161.15625 194.410156 "/></clipPath></defs><g id="36ca5be0be"><path style=" stroke:none;fill-rule:nonzero;fill:#145da0;fill-opacity:1;" d="M 194.667969 246.445312 C 194.996094 247.234375 195.28125 248.035156 195.53125 248.851562 C 195.777344 249.667969 195.984375 250.496094 196.152344 251.332031 C 196.316406 252.171875 196.441406 253.011719 196.527344 253.863281 C 196.609375 254.710938 196.652344 255.5625 196.652344 256.417969 C 196.652344 257.269531 196.609375 258.121094 196.527344 258.972656 C 196.441406 259.820312 196.316406 260.664062 196.152344 261.5 C 195.984375 262.335938 195.777344 263.164062 195.53125 263.980469 C 195.28125 264.796875 194.996094 265.601562 194.667969 266.386719 C 194.339844 267.175781 193.976562 267.949219 193.574219 268.699219 C 193.171875 269.453125 192.734375 270.183594 192.261719 270.894531 C 191.785156 271.601562 191.277344 272.289062 190.738281 272.949219 C 190.195312 273.605469 189.625 274.238281 189.019531 274.84375 C 188.417969 275.445312 187.785156 276.019531 187.125 276.558594 C 186.464844 277.101562 185.78125 277.609375 185.070312 278.082031 C 184.363281 278.558594 183.628906 278.996094 182.878906 279.398438 C 182.125 279.800781 181.355469 280.164062 180.566406 280.492188 C 179.777344 280.816406 178.976562 281.105469 178.160156 281.351562 C 177.339844 281.601562 176.515625 281.808594 175.679688 281.972656 C 174.839844 282.140625 173.996094 282.265625 173.148438 282.347656 C 172.300781 282.433594 171.449219 282.472656 170.59375 282.472656 C 169.742188 282.472656 168.890625 282.433594 168.039062 282.347656 C 167.191406 282.265625 166.347656 282.140625 165.511719 281.972656 C 164.671875 281.808594 163.847656 281.601562 163.03125 281.351562 C 162.214844 281.105469 161.410156 280.816406 160.621094 280.492188 C 159.835938 280.164062 159.0625 279.800781 158.3125 279.398438 C 157.558594 278.996094 156.828125 278.558594 156.117188 278.082031 C 155.40625 277.609375 154.722656 277.101562 154.0625 276.558594 C 153.402344 276.019531 152.773438 275.445312 152.167969 274.84375 C 151.566406 274.238281 150.992188 273.605469 150.453125 272.949219 C 149.910156 272.289062 149.402344 271.601562 148.929688 270.894531 C 148.453125 270.183594 148.015625 269.453125 147.613281 268.699219 C 147.210938 267.949219 146.847656 267.175781 146.519531 266.386719 C 146.195312 265.601562 145.90625 264.796875 145.660156 263.980469 C 145.410156 263.164062 145.203125 262.335938 145.039062 261.5 C 144.871094 260.664062 144.746094 259.820312 144.664062 258.972656 C 144.578125 258.121094 144.535156 257.269531 144.535156 256.417969 C 144.535156 255.5625 144.578125 254.710938 144.664062 253.863281 C 144.746094 253.011719 144.871094 252.171875 145.039062 251.332031 C 145.203125 250.496094 145.410156 249.667969 145.660156 248.851562 C 145.90625 248.035156 146.195312 247.234375 146.519531 246.445312 C 146.847656 245.65625 147.210938 244.886719 147.613281 244.132812 C 148.015625 243.378906 148.453125 242.648438 148.929688 241.941406 C 149.402344 241.230469 149.910156 240.546875 150.453125 239.886719 C 150.992188 239.226562 151.566406 238.59375 152.167969 237.992188 C 152.773438 237.386719 153.402344 236.816406 154.0625 236.273438 C 154.722656 235.734375 155.40625 235.226562 156.117188 234.75 C 156.828125 234.277344 157.558594 233.839844 158.3125 233.4375 C 159.0625 233.035156 159.835938 232.667969 160.621094 232.34375 C 161.410156 232.015625 162.214844 231.730469 163.03125 231.480469 C 163.847656 231.234375 164.671875 231.027344 165.511719 230.859375 C 166.347656 230.695312 167.191406 230.570312 168.039062 230.484375 C 168.890625 230.402344 169.742188 230.359375 170.59375 230.359375 C 171.449219 230.359375 172.300781 230.402344 173.148438 230.484375 C 173.996094 230.570312 174.839844 230.695312 175.679688 230.859375 C 176.515625 231.027344 177.339844 231.234375 178.160156 231.480469 C 178.976562 231.730469 179.777344 232.015625 180.566406 232.34375 C 181.355469 232.667969 182.125 233.035156 182.878906 233.4375 C 183.628906 233.839844 184.363281 234.277344 185.070312 234.75 C 185.78125 235.226562 186.464844 235.734375 187.125 236.273438 C 187.785156 236.816406 188.417969 237.386719 189.019531 237.992188 C 189.621094 238.59375 190.195312 239.226562 190.738281 239.886719 C 191.277344 240.546875 191.785156 241.230469 192.261719 241.941406 C 192.734375 242.648438 193.171875 243.378906 193.574219 244.132812 C 193.976562 244.886719 194.339844 245.65625 194.667969 246.445312 Z M 194.667969 246.445312 "/><path style=" stroke:none;fill-rule:nonzero;fill:#145da0;fill-opacity:1;" d="M 173.042969 76.253906 C 174.023438 76.414062 174.976562 76.664062 175.90625 77.011719 C 176.835938 77.359375 177.722656 77.792969 178.566406 78.316406 C 179.414062 78.835938 180.199219 79.4375 180.925781 80.113281 C 181.648438 80.789062 182.304688 81.53125 182.882812 82.335938 C 183.464844 83.140625 183.960938 83.996094 184.371094 84.898438 C 184.785156 85.800781 185.105469 86.734375 185.332031 87.703125 C 185.5625 88.667969 185.691406 89.648438 185.726562 90.636719 C 185.761719 91.628906 185.699219 92.617188 185.542969 93.597656 C 185.382812 94.574219 185.128906 95.53125 184.78125 96.460938 C 184.433594 97.390625 184 98.277344 183.480469 99.121094 C 182.957031 99.964844 182.359375 100.75 181.679688 101.476562 C 181.003906 102.203125 180.265625 102.855469 179.457031 103.4375 C 178.652344 104.019531 177.800781 104.515625 176.898438 104.925781 C 175.992188 105.339844 175.058594 105.65625 174.09375 105.886719 C 173.128906 106.113281 172.148438 106.246094 171.15625 106.28125 C 170.164062 106.316406 169.179688 106.253906 168.199219 106.09375 C 167.21875 105.9375 166.265625 105.683594 165.335938 105.335938 C 164.40625 104.988281 163.515625 104.554688 162.671875 104.03125 C 161.828125 103.511719 161.042969 102.910156 160.316406 102.234375 C 159.589844 101.558594 158.9375 100.816406 158.359375 100.011719 C 157.777344 99.207031 157.28125 98.351562 156.867188 97.449219 C 156.457031 96.546875 156.136719 95.613281 155.910156 94.648438 C 155.679688 93.679688 155.550781 92.703125 155.515625 91.710938 C 155.480469 90.71875 155.539062 89.730469 155.699219 88.753906 C 155.859375 87.773438 156.113281 86.816406 156.457031 85.886719 C 156.804688 84.957031 157.242188 84.070312 157.761719 83.226562 C 158.285156 82.382812 158.882812 81.597656 159.558594 80.871094 C 160.238281 80.144531 160.976562 79.492188 161.78125 78.910156 C 162.585938 78.332031 163.441406 77.835938 164.34375 77.421875 C 165.246094 77.011719 166.183594 76.691406 167.148438 76.460938 C 168.113281 76.234375 169.09375 76.101562 170.085938 76.066406 C 171.078125 76.03125 172.0625 76.09375 173.042969 76.253906 Z M 173.042969 76.253906 "/><path style=" stroke:none;fill-rule:nonzero;fill:#4babdb;fill-opacity:1;" d="M 245.667969 183.921875 L 245.667969 166.140625 C 245.667969 124.753906 212.054688 91.136719 170.664062 91.136719 C 129.273438 91.136719 95.660156 124.753906 95.660156 166.140625 L 95.660156 183.921875 C 95.660156 205.804688 91.484375 227.613281 83.421875 247.984375 C 80.039062 256.625 86.375 266.050781 95.660156 266.050781 L 245.597656 266.050781 C 254.882812 266.050781 261.363281 256.625 257.835938 247.984375 C 249.84375 227.613281 245.667969 205.949219 245.667969 183.921875 Z M 245.667969 183.921875 "/><path style=" stroke:none;fill-rule:nonzero;fill:#4babdb;fill-opacity:1;" d="M 271.367188 114.675781 C 264.457031 100.855469 255.097656 88.761719 243.652344 78.683594 C 241.496094 76.8125 238.183594 77.027344 236.382812 79.261719 C 234.511719 81.417969 234.726562 84.730469 236.886719 86.601562 C 247.398438 95.671875 255.890625 106.757812 262.152344 119.28125 C 267.265625 129.503906 270.648438 140.226562 272.304688 151.457031 C 272.734375 154.265625 275.328125 156.28125 278.207031 155.847656 C 278.78125 155.777344 279.285156 155.5625 279.789062 155.34375 C 281.734375 154.335938 282.957031 152.175781 282.597656 149.945312 C 280.652344 137.710938 276.980469 125.832031 271.367188 114.675781 Z M 271.367188 114.675781 "/><path style=" stroke:none;fill-rule:nonzero;fill:#4babdb;fill-opacity:1;" d="M 298.71875 100.925781 C 288.570312 80.554688 274.246094 63.207031 256.179688 49.53125 C 253.804688 47.730469 250.636719 48.234375 248.835938 50.539062 C 247.039062 52.914062 247.542969 56.082031 249.84375 57.882812 C 266.617188 70.550781 279.859375 86.601562 289.289062 105.605469 C 297.496094 122.089844 302.320312 139.722656 303.398438 157.9375 C 303.613281 160.742188 306.0625 162.976562 308.941406 162.902344 C 309.660156 162.902344 310.308594 162.6875 311.027344 162.398438 C 312.902344 161.464844 314.050781 159.589844 313.910156 157.433594 C 312.613281 137.710938 307.574219 118.777344 298.71875 100.925781 Z M 298.71875 100.925781 "/><path style=" stroke:none;fill-rule:nonzero;fill:#4babdb;fill-opacity:1;" d="M 97.53125 78.683594 C 86.015625 88.761719 76.65625 100.855469 69.816406 114.675781 C 64.277344 125.832031 60.53125 137.710938 58.734375 149.875 C 58.371094 152.105469 59.597656 154.335938 61.539062 155.273438 C 62.042969 155.488281 62.546875 155.777344 63.125 155.777344 C 65.929688 156.207031 68.59375 154.191406 69.027344 151.386719 C 70.683594 140.226562 74.066406 129.429688 79.175781 119.210938 C 85.4375 106.683594 93.859375 95.601562 104.441406 86.53125 C 106.601562 84.660156 106.816406 81.347656 104.945312 79.1875 C 103 77.027344 99.691406 76.8125 97.53125 78.683594 Z M 97.53125 78.683594 "/><g clip-rule="nonzero" clip-path="url(#dcdbfd881e)"><path style=" stroke:none;fill-rule:nonzero;fill:#4babdb;fill-opacity:1;" d="M 91.414062 57.882812 C 93.644531 56.082031 94.148438 52.914062 92.421875 50.539062 C 90.621094 48.308594 87.453125 47.804688 85.078125 49.53125 C 66.9375 63.207031 52.6875 80.554688 42.464844 100.925781 C 33.539062 118.777344 28.574219 137.710938 27.277344 157.359375 C 27.203125 159.519531 28.285156 161.390625 30.15625 162.328125 C 30.875 162.6875 31.453125 162.832031 32.242188 162.832031 C 35.121094 162.902344 37.570312 160.742188 37.785156 157.863281 C 38.867188 139.722656 43.6875 122.015625 51.894531 105.535156 C 61.394531 86.601562 74.640625 70.621094 91.414062 57.882812 Z M 91.414062 57.882812 "/></g><g clip-rule="nonzero" clip-path="url(#4570169dcb)"><g clip-rule="nonzero" clip-path="url(#bc86ea68d2)"><g clip-rule="nonzero" clip-path="url(#6a2b859c8b)"><path style=" stroke:none;fill-rule:nonzero;fill:#f7dbb9;fill-opacity:1;" d="M 302.734375 266.007812 L 295.507812 249.75 C 293.539062 245.328125 288.621094 242.769531 283.976562 244.140625 C 278.351562 245.796875 275.625 251.996094 277.929688 257.175781 L 276 252.835938 C 274.03125 248.410156 269.113281 245.855469 264.464844 247.226562 C 258.84375 248.882812 256.117188 255.082031 258.417969 260.261719 L 256.488281 255.921875 C 254.523438 251.496094 249.601562 248.941406 244.957031 250.3125 C 239.335938 251.96875 236.609375 258.167969 238.910156 263.347656 L 222.332031 226.066406 C 220.199219 221.269531 214.535156 219.09375 209.738281 221.226562 C 204.945312 223.355469 202.765625 229.023438 204.898438 233.816406 L 234.789062 301.035156 C 235.234375 302.03125 234.066406 302.972656 233.179688 302.332031 C 227.550781 298.257812 220.210938 292.277344 220.144531 292.222656 C 216.164062 288.910156 210.253906 289.445312 206.933594 293.429688 C 203.621094 297.410156 204.15625 303.320312 208.136719 306.636719 C 208.605469 307.027344 222.949219 318.835938 234.542969 325.746094 C 249.292969 334.542969 259.878906 337.164062 264.992188 338.125 C 270.101562 339.082031 274.8125 338.917969 277.367188 337.78125 C 279.921875 336.644531 299.445312 327.960938 299.445312 327.960938 C 303.289062 326.253906 306.042969 322.734375 306.824219 318.523438 L 308.273438 310.753906 C 311.023438 296 309.078125 280.265625 302.734375 266.007812 Z M 302.734375 266.007812 "/></g></g></g><g clip-rule="nonzero" clip-path="url(#d8f23df486)"><g clip-rule="nonzero" clip-path="url(#1c75b1afec)"><g clip-rule="nonzero" clip-path="url(#c02d650769)"><path style=" stroke:none;fill-rule:nonzero;fill:#f7dbb9;fill-opacity:1;" d="M 199.59375 207.6875 C 200.441406 209.589844 202.667969 210.445312 204.570312 209.601562 C 206.472656 208.753906 207.328125 206.527344 206.484375 204.621094 L 200.117188 190.308594 C 199.273438 188.402344 197.042969 187.546875 195.140625 188.394531 C 193.238281 189.238281 192.382812 191.46875 193.226562 193.371094 Z M 199.59375 207.6875 "/></g></g></g><g clip-rule="nonzero" clip-path="url(#1ce64f42c1)"><g clip-rule="nonzero" clip-path="url(#afd67a5bee)"><g clip-rule="nonzero" clip-path="url(#d1643b4cba)"><path style=" stroke:none;fill-rule:nonzero;fill:#f7dbb9;fill-opacity:1;" d="M 173.339844 218.5 L 187.964844 224.121094 C 188.9375 224.496094 189.964844 224.441406 190.847656 224.046875 C 191.730469 223.65625 192.460938 222.925781 192.835938 221.957031 C 193.582031 220.011719 192.613281 217.828125 190.667969 217.085938 L 176.042969 211.464844 C 174.101562 210.714844 171.917969 211.6875 171.171875 213.628906 C 170.425781 215.574219 171.394531 217.753906 173.339844 218.5 Z M 173.339844 218.5 "/></g></g></g><g clip-rule="nonzero" clip-path="url(#6a63e84aaa)"><g clip-rule="nonzero" clip-path="url(#e4921ab072)"><g clip-rule="nonzero" clip-path="url(#290165d142)"><path style=" stroke:none;fill-rule:nonzero;fill:#f7dbb9;fill-opacity:1;" d="M 193.273438 238.992188 C 192.425781 237.089844 190.199219 236.230469 188.296875 237.078125 L 173.980469 243.445312 C 172.078125 244.289062 171.222656 246.519531 172.066406 248.421875 C 172.914062 250.324219 175.140625 251.179688 177.046875 250.332031 L 191.359375 243.96875 C 193.261719 243.121094 194.121094 240.894531 193.273438 238.992188 Z M 193.273438 238.992188 "/></g></g></g><g clip-rule="nonzero" clip-path="url(#5cc0806320)"><g clip-rule="nonzero" clip-path="url(#fe2b929581)"><g clip-rule="nonzero" clip-path="url(#7fa434d603)"><path style=" stroke:none;fill-rule:nonzero;fill:#f7dbb9;fill-opacity:1;" d="M 233.960938 220.898438 C 234.808594 222.800781 237.035156 223.65625 238.9375 222.808594 L 253.253906 216.445312 C 255.15625 215.597656 256.011719 213.371094 255.167969 211.46875 C 254.320312 209.5625 252.09375 208.707031 250.191406 209.554688 L 235.875 215.921875 C 233.972656 216.765625 233.117188 218.996094 233.960938 220.898438 Z M 233.960938 220.898438 "/></g></g></g><g clip-rule="nonzero" clip-path="url(#e2241b2f1b)"><g clip-rule="nonzero" clip-path="url(#098c6c1b4f)"><g clip-rule="nonzero" clip-path="url(#cb3e7f6919)"><path style=" stroke:none;fill-rule:nonzero;fill:#f7dbb9;fill-opacity:1;" d="M 221.605469 209.160156 C 222.578125 209.535156 223.609375 209.480469 224.488281 209.085938 C 225.371094 208.695312 226.105469 207.96875 226.476562 206.996094 L 232.097656 192.371094 C 232.847656 190.425781 231.875 188.246094 229.933594 187.5 C 227.988281 186.753906 225.808594 187.722656 225.0625 189.667969 L 219.441406 204.289062 C 218.691406 206.234375 219.660156 208.414062 221.605469 209.160156 Z M 221.605469 209.160156 "/></g></g></g></g></svg>